<svg xmlns="http://www.w3.org/2000/svg" width="960" height="720" viewBox="0 0 960 720" font-family="system-ui, -apple-system, 'Segoe UI', Helvetica, Arial, sans-serif">
<rect x="0" y="0" width="960" height="720" fill="#fcfcfb"/>
<text x="21.0" y="40.5" font-size="21.8" fill="#0b0b0b" font-weight="600">DeepSeek-V4-Flash UD-IQ3_XXS -- prefill &amp; decode vs KV depth</text>
<line x1="21.0" y1="68.9" x2="47.3" y2="68.9" stroke="#0072b2" stroke-width="2.5"/>
<circle cx="34.2" cy="68.9" r="4.5" fill="#0072b2" stroke="#fcfcfb" stroke-width="1.5"/>
<text x="55.4" y="75.0" font-size="20.2" fill="#52514e">gmlx</text>
<line x1="136.8" y1="68.9" x2="163.2" y2="68.9" stroke="#6f6f6d" stroke-width="2.5"/>
<circle cx="150.0" cy="68.9" r="4.5" fill="#6f6f6d" stroke="#fcfcfb" stroke-width="1.5"/>
<text x="171.3" y="75.0" font-size="20.2" fill="#52514e">llama.cpp</text>
<line x1="75.0" y1="343.5" x2="939.0" y2="343.5" stroke="#e1e0d9" stroke-width="1.0"/>
<text x="67.5" y="348.7" font-size="13.5" fill="#898781" text-anchor="end" style="font-variant-numeric: tabular-nums">0</text>
<line x1="75.0" y1="273.3" x2="939.0" y2="273.3" stroke="#e1e0d9" stroke-width="1.0"/>
<text x="67.5" y="278.6" font-size="13.5" fill="#898781" text-anchor="end" style="font-variant-numeric: tabular-nums">200</text>
<line x1="75.0" y1="203.2" x2="939.0" y2="203.2" stroke="#e1e0d9" stroke-width="1.0"/>
<text x="67.5" y="208.5" font-size="13.5" fill="#898781" text-anchor="end" style="font-variant-numeric: tabular-nums">400</text>
<line x1="75.0" y1="133.1" x2="939.0" y2="133.1" stroke="#e1e0d9" stroke-width="1.0"/>
<text x="67.5" y="138.4" font-size="13.5" fill="#898781" text-anchor="end" style="font-variant-numeric: tabular-nums">600</text>
<line x1="75.0" y1="343.5" x2="939.0" y2="343.5" stroke="#c3c2b7" stroke-width="1.2"/>
<line x1="126.8" y1="343.5" x2="126.8" y2="343.5" stroke="#c3c2b7" stroke-width="1.0"/>
<line x1="371.2" y1="343.5" x2="371.2" y2="343.5" stroke="#c3c2b7" stroke-width="1.0"/>
<line x1="529.1" y1="343.5" x2="529.1" y2="343.5" stroke="#c3c2b7" stroke-width="1.0"/>
<line x1="686.6" y1="343.5" x2="686.6" y2="343.5" stroke="#c3c2b7" stroke-width="1.0"/>
<line x1="743.6" y1="343.5" x2="743.6" y2="343.5" stroke="#c3c2b7" stroke-width="1.0"/>
<line x1="812.2" y1="343.5" x2="812.2" y2="343.5" stroke="#c3c2b7" stroke-width="1.0"/>
<line x1="887.2" y1="343.5" x2="887.2" y2="343.5" stroke="#c3c2b7" stroke-width="1.0"/>
<path d="M126.8,211.0 L371.2,142.8 L529.1,128.2 L686.6,134.0 L743.6,152.8 L812.2,173.7 L887.2,199.3" fill="none" stroke="#0072b2" stroke-width="2.4" stroke-linejoin="round" stroke-linecap="round"/>
<circle cx="126.8" cy="211.0" r="3.9" fill="#0072b2" stroke="#fcfcfb" stroke-width="2.0"/>
<circle cx="371.2" cy="142.8" r="3.9" fill="#0072b2" stroke="#fcfcfb" stroke-width="2.0"/>
<circle cx="529.1" cy="128.2" r="3.9" fill="#0072b2" stroke="#fcfcfb" stroke-width="2.0"/>
<circle cx="686.6" cy="134.0" r="3.9" fill="#0072b2" stroke="#fcfcfb" stroke-width="2.0"/>
<circle cx="743.6" cy="152.8" r="3.9" fill="#0072b2" stroke="#fcfcfb" stroke-width="2.0"/>
<circle cx="812.2" cy="173.7" r="3.9" fill="#0072b2" stroke="#fcfcfb" stroke-width="2.0"/>
<circle cx="887.2" cy="199.3" r="3.9" fill="#0072b2" stroke="#fcfcfb" stroke-width="2.0"/>
<text x="894.7" y="192.6" font-size="12.8" fill="#0072b2" font-weight="600" style="font-variant-numeric: tabular-nums">411</text>
<path d="M126.8,233.9 L371.2,218.4 L529.1,250.3 L686.6,290.1 L743.6,302.6" fill="none" stroke="#6f6f6d" stroke-width="2.4" stroke-linejoin="round" stroke-linecap="round"/>
<circle cx="126.8" cy="233.9" r="3.9" fill="#6f6f6d" stroke="#fcfcfb" stroke-width="2.0"/>
<circle cx="371.2" cy="218.4" r="3.9" fill="#6f6f6d" stroke="#fcfcfb" stroke-width="2.0"/>
<circle cx="529.1" cy="250.3" r="3.9" fill="#6f6f6d" stroke="#fcfcfb" stroke-width="2.0"/>
<circle cx="686.6" cy="290.1" r="3.9" fill="#6f6f6d" stroke="#fcfcfb" stroke-width="2.0"/>
<circle cx="743.6" cy="302.6" r="3.9" fill="#6f6f6d" stroke="#fcfcfb" stroke-width="2.0"/>
<text x="30.0" y="227.2" font-size="14.2" fill="#898781" text-anchor="middle" transform="rotate(-90.0 30.0 227.2)">prefill tok/s (baseline)</text>
<line x1="75.0" y1="621.0" x2="939.0" y2="621.0" stroke="#e1e0d9" stroke-width="1.0"/>
<text x="67.5" y="626.2" font-size="13.5" fill="#898781" text-anchor="end" style="font-variant-numeric: tabular-nums">0</text>
<line x1="75.0" y1="559.4" x2="939.0" y2="559.4" stroke="#e1e0d9" stroke-width="1.0"/>
<text x="67.5" y="564.6" font-size="13.5" fill="#898781" text-anchor="end" style="font-variant-numeric: tabular-nums">10</text>
<line x1="75.0" y1="497.7" x2="939.0" y2="497.7" stroke="#e1e0d9" stroke-width="1.0"/>
<text x="67.5" y="503.0" font-size="13.5" fill="#898781" text-anchor="end" style="font-variant-numeric: tabular-nums">20</text>
<line x1="75.0" y1="436.1" x2="939.0" y2="436.1" stroke="#e1e0d9" stroke-width="1.0"/>
<text x="67.5" y="441.4" font-size="13.5" fill="#898781" text-anchor="end" style="font-variant-numeric: tabular-nums">30</text>
<line x1="75.0" y1="621.0" x2="939.0" y2="621.0" stroke="#c3c2b7" stroke-width="1.2"/>
<line x1="126.8" y1="621.0" x2="126.8" y2="626.2" stroke="#c3c2b7" stroke-width="1.0"/>
<text x="126.8" y="642.0" font-size="12.8" fill="#898781" text-anchor="middle" style="font-variant-numeric: tabular-nums">512</text>
<line x1="371.2" y1="621.0" x2="371.2" y2="626.2" stroke="#c3c2b7" stroke-width="1.0"/>
<text x="371.2" y="642.0" font-size="12.8" fill="#898781" text-anchor="middle" style="font-variant-numeric: tabular-nums">4.3k</text>
<line x1="529.1" y1="621.0" x2="529.1" y2="626.2" stroke="#c3c2b7" stroke-width="1.0"/>
<text x="529.1" y="642.0" font-size="12.8" fill="#898781" text-anchor="middle" style="font-variant-numeric: tabular-nums">17k</text>
<line x1="686.6" y1="621.0" x2="686.6" y2="626.2" stroke="#c3c2b7" stroke-width="1.0"/>
<text x="686.6" y="642.0" font-size="12.8" fill="#898781" text-anchor="middle" style="font-variant-numeric: tabular-nums">67k</text>
<line x1="743.6" y1="621.0" x2="743.6" y2="626.2" stroke="#c3c2b7" stroke-width="1.0"/>
<text x="743.6" y="642.0" font-size="12.8" fill="#898781" text-anchor="middle" style="font-variant-numeric: tabular-nums">110k</text>
<line x1="812.2" y1="621.0" x2="812.2" y2="626.2" stroke="#c3c2b7" stroke-width="1.0"/>
<text x="812.2" y="642.0" font-size="12.8" fill="#898781" text-anchor="middle" style="font-variant-numeric: tabular-nums">200k</text>
<line x1="887.2" y1="621.0" x2="887.2" y2="626.2" stroke="#c3c2b7" stroke-width="1.0"/>
<text x="887.2" y="642.0" font-size="12.8" fill="#898781" text-anchor="middle" style="font-variant-numeric: tabular-nums">384k</text>
<path d="M126.8,405.7 L371.2,421.0 L529.1,429.7 L686.6,435.6 L743.6,446.3 L812.2,467.8 L887.2,483.4" fill="none" stroke="#0072b2" stroke-width="2.4" stroke-linejoin="round" stroke-linecap="round"/>
<circle cx="126.8" cy="405.7" r="3.9" fill="#0072b2" stroke="#fcfcfb" stroke-width="2.0"/>
<circle cx="371.2" cy="421.0" r="3.9" fill="#0072b2" stroke="#fcfcfb" stroke-width="2.0"/>
<circle cx="529.1" cy="429.7" r="3.9" fill="#0072b2" stroke="#fcfcfb" stroke-width="2.0"/>
<circle cx="686.6" cy="435.6" r="3.9" fill="#0072b2" stroke="#fcfcfb" stroke-width="2.0"/>
<circle cx="743.6" cy="446.3" r="3.9" fill="#0072b2" stroke="#fcfcfb" stroke-width="2.0"/>
<circle cx="812.2" cy="467.8" r="3.9" fill="#0072b2" stroke="#fcfcfb" stroke-width="2.0"/>
<circle cx="887.2" cy="483.4" r="3.9" fill="#0072b2" stroke="#fcfcfb" stroke-width="2.0"/>
<text x="894.7" y="476.7" font-size="12.8" fill="#0072b2" font-weight="600" style="font-variant-numeric: tabular-nums">22.3</text>
<path d="M126.8,541.8 L371.2,543.7 L529.1,544.9 L686.6,554.0 L743.6,560.2" fill="none" stroke="#6f6f6d" stroke-width="2.4" stroke-linejoin="round" stroke-linecap="round"/>
<circle cx="126.8" cy="541.8" r="3.9" fill="#6f6f6d" stroke="#fcfcfb" stroke-width="2.0"/>
<circle cx="371.2" cy="543.7" r="3.9" fill="#6f6f6d" stroke="#fcfcfb" stroke-width="2.0"/>
<circle cx="529.1" cy="544.9" r="3.9" fill="#6f6f6d" stroke="#fcfcfb" stroke-width="2.0"/>
<circle cx="686.6" cy="554.0" r="3.9" fill="#6f6f6d" stroke="#fcfcfb" stroke-width="2.0"/>
<circle cx="743.6" cy="560.2" r="3.9" fill="#6f6f6d" stroke="#fcfcfb" stroke-width="2.0"/>
<text x="30.0" y="504.7" font-size="14.2" fill="#898781" text-anchor="middle" transform="rotate(-90.0 30.0 504.7)">decode tok/s</text>
<text x="507.0" y="660.0" font-size="14.2" fill="#898781" text-anchor="middle">KV depth (tokens, log scale)</text>
</svg>
