<svg xmlns="http://www.w3.org/2000/svg" width="960" height="720" viewBox="0 0 960 720" font-family="system-ui, -apple-system, 'Segoe UI', Helvetica, Arial, sans-serif">
<rect x="0" y="0" width="960" height="720" fill="#fcfcfb"/>
<text x="21.0" y="40.5" font-size="21.8" fill="#0b0b0b" font-weight="600">Dolphin3.0-Llama3.1-8B Q6_K -- prefill &amp; decode vs KV depth</text>
<line x1="21.0" y1="68.9" x2="47.3" y2="68.9" stroke="#0072b2" stroke-width="2.5"/>
<circle cx="34.2" cy="68.9" r="4.5" fill="#0072b2" stroke="#fcfcfb" stroke-width="1.5"/>
<text x="55.4" y="75.0" font-size="20.2" fill="#52514e">gmlx</text>
<line x1="136.8" y1="68.9" x2="163.2" y2="68.9" stroke="#6f6f6d" stroke-width="2.5"/>
<circle cx="150.0" cy="68.9" r="4.5" fill="#6f6f6d" stroke="#fcfcfb" stroke-width="1.5"/>
<text x="171.3" y="75.0" font-size="20.2" fill="#52514e">llama.cpp</text>
<line x1="75.0" y1="343.5" x2="939.0" y2="343.5" stroke="#e1e0d9" stroke-width="1.0"/>
<text x="67.5" y="348.7" font-size="13.5" fill="#898781" text-anchor="end" style="font-variant-numeric: tabular-nums">0</text>
<line x1="75.0" y1="253.2" x2="939.0" y2="253.2" stroke="#e1e0d9" stroke-width="1.0"/>
<text x="67.5" y="258.4" font-size="13.5" fill="#898781" text-anchor="end" style="font-variant-numeric: tabular-nums">1000</text>
<line x1="75.0" y1="162.9" x2="939.0" y2="162.9" stroke="#e1e0d9" stroke-width="1.0"/>
<text x="67.5" y="168.1" font-size="13.5" fill="#898781" text-anchor="end" style="font-variant-numeric: tabular-nums">2000</text>
<line x1="75.0" y1="343.5" x2="939.0" y2="343.5" stroke="#c3c2b7" stroke-width="1.2"/>
<line x1="126.8" y1="343.5" x2="126.8" y2="343.5" stroke="#c3c2b7" stroke-width="1.0"/>
<line x1="428.1" y1="343.5" x2="428.1" y2="343.5" stroke="#c3c2b7" stroke-width="1.0"/>
<line x1="622.8" y1="343.5" x2="622.8" y2="343.5" stroke="#c3c2b7" stroke-width="1.0"/>
<line x1="817.0" y1="343.5" x2="817.0" y2="343.5" stroke="#c3c2b7" stroke-width="1.0"/>
<line x1="887.2" y1="343.5" x2="887.2" y2="343.5" stroke="#c3c2b7" stroke-width="1.0"/>
<path d="M126.8,128.2 L428.1,152.0 L622.8,176.7 L817.0,247.2 L887.2,274.3" fill="none" stroke="#0072b2" stroke-width="2.4" stroke-linejoin="round" stroke-linecap="round"/>
<circle cx="126.8" cy="128.2" r="3.9" fill="#0072b2" stroke="#fcfcfb" stroke-width="2.0"/>
<circle cx="428.1" cy="152.0" r="3.9" fill="#0072b2" stroke="#fcfcfb" stroke-width="2.0"/>
<circle cx="622.8" cy="176.7" r="3.9" fill="#0072b2" stroke="#fcfcfb" stroke-width="2.0"/>
<circle cx="817.0" cy="247.2" r="3.9" fill="#0072b2" stroke="#fcfcfb" stroke-width="2.0"/>
<circle cx="887.2" cy="274.3" r="3.9" fill="#0072b2" stroke="#fcfcfb" stroke-width="2.0"/>
<text x="894.7" y="267.6" font-size="12.8" fill="#0072b2" font-weight="600" style="font-variant-numeric: tabular-nums">766</text>
<path d="M126.8,136.6 L428.1,192.7 L622.8,255.0 L817.0,314.0 L887.2,324.9" fill="none" stroke="#6f6f6d" stroke-width="2.4" stroke-linejoin="round" stroke-linecap="round"/>
<circle cx="126.8" cy="136.6" r="3.9" fill="#6f6f6d" stroke="#fcfcfb" stroke-width="2.0"/>
<circle cx="428.1" cy="192.7" r="3.9" fill="#6f6f6d" stroke="#fcfcfb" stroke-width="2.0"/>
<circle cx="622.8" cy="255.0" r="3.9" fill="#6f6f6d" stroke="#fcfcfb" stroke-width="2.0"/>
<circle cx="817.0" cy="314.0" r="3.9" fill="#6f6f6d" stroke="#fcfcfb" stroke-width="2.0"/>
<circle cx="887.2" cy="324.9" r="3.9" fill="#6f6f6d" stroke="#fcfcfb" stroke-width="2.0"/>
<text x="30.0" y="227.2" font-size="14.2" fill="#898781" text-anchor="middle" transform="rotate(-90.0 30.0 227.2)">prefill tok/s (baseline)</text>
<line x1="75.0" y1="621.0" x2="939.0" y2="621.0" stroke="#e1e0d9" stroke-width="1.0"/>
<text x="67.5" y="626.2" font-size="13.5" fill="#898781" text-anchor="end" style="font-variant-numeric: tabular-nums">0</text>
<line x1="75.0" y1="567.3" x2="939.0" y2="567.3" stroke="#e1e0d9" stroke-width="1.0"/>
<text x="67.5" y="572.6" font-size="13.5" fill="#898781" text-anchor="end" style="font-variant-numeric: tabular-nums">20</text>
<line x1="75.0" y1="513.6" x2="939.0" y2="513.6" stroke="#e1e0d9" stroke-width="1.0"/>
<text x="67.5" y="518.9" font-size="13.5" fill="#898781" text-anchor="end" style="font-variant-numeric: tabular-nums">40</text>
<line x1="75.0" y1="460.0" x2="939.0" y2="460.0" stroke="#e1e0d9" stroke-width="1.0"/>
<text x="67.5" y="465.2" font-size="13.5" fill="#898781" text-anchor="end" style="font-variant-numeric: tabular-nums">60</text>
<line x1="75.0" y1="406.3" x2="939.0" y2="406.3" stroke="#e1e0d9" stroke-width="1.0"/>
<text x="67.5" y="411.5" font-size="13.5" fill="#898781" text-anchor="end" style="font-variant-numeric: tabular-nums">80</text>
<line x1="75.0" y1="621.0" x2="939.0" y2="621.0" stroke="#c3c2b7" stroke-width="1.2"/>
<line x1="126.8" y1="621.0" x2="126.8" y2="626.2" stroke="#c3c2b7" stroke-width="1.0"/>
<text x="126.8" y="642.0" font-size="12.8" fill="#898781" text-anchor="middle" style="font-variant-numeric: tabular-nums">512</text>
<line x1="428.1" y1="621.0" x2="428.1" y2="626.2" stroke="#c3c2b7" stroke-width="1.0"/>
<text x="428.1" y="642.0" font-size="12.8" fill="#898781" text-anchor="middle" style="font-variant-numeric: tabular-nums">4.3k</text>
<line x1="622.8" y1="621.0" x2="622.8" y2="626.2" stroke="#c3c2b7" stroke-width="1.0"/>
<text x="622.8" y="642.0" font-size="12.8" fill="#898781" text-anchor="middle" style="font-variant-numeric: tabular-nums">17k</text>
<line x1="817.0" y1="621.0" x2="817.0" y2="626.2" stroke="#c3c2b7" stroke-width="1.0"/>
<text x="817.0" y="642.0" font-size="12.8" fill="#898781" text-anchor="middle" style="font-variant-numeric: tabular-nums">67k</text>
<line x1="887.2" y1="621.0" x2="887.2" y2="626.2" stroke="#c3c2b7" stroke-width="1.0"/>
<text x="887.2" y="642.0" font-size="12.8" fill="#898781" text-anchor="middle" style="font-variant-numeric: tabular-nums">110k</text>
<path d="M126.8,405.7 L428.1,429.6 L622.8,477.5 L817.0,544.1 L887.2,565.4" fill="none" stroke="#0072b2" stroke-width="2.4" stroke-linejoin="round" stroke-linecap="round"/>
<circle cx="126.8" cy="405.7" r="3.9" fill="#0072b2" stroke="#fcfcfb" stroke-width="2.0"/>
<circle cx="428.1" cy="429.6" r="3.9" fill="#0072b2" stroke="#fcfcfb" stroke-width="2.0"/>
<circle cx="622.8" cy="477.5" r="3.9" fill="#0072b2" stroke="#fcfcfb" stroke-width="2.0"/>
<circle cx="817.0" cy="544.1" r="3.9" fill="#0072b2" stroke="#fcfcfb" stroke-width="2.0"/>
<circle cx="887.2" cy="565.4" r="3.9" fill="#0072b2" stroke="#fcfcfb" stroke-width="2.0"/>
<text x="894.7" y="558.6" font-size="12.8" fill="#0072b2" font-weight="600" style="font-variant-numeric: tabular-nums">20.7</text>
<path d="M126.8,415.0 L428.1,438.8 L622.8,486.6 L817.0,549.6 L887.2,574.4" fill="none" stroke="#6f6f6d" stroke-width="2.4" stroke-linejoin="round" stroke-linecap="round"/>
<circle cx="126.8" cy="415.0" r="3.9" fill="#6f6f6d" stroke="#fcfcfb" stroke-width="2.0"/>
<circle cx="428.1" cy="438.8" r="3.9" fill="#6f6f6d" stroke="#fcfcfb" stroke-width="2.0"/>
<circle cx="622.8" cy="486.6" r="3.9" fill="#6f6f6d" stroke="#fcfcfb" stroke-width="2.0"/>
<circle cx="817.0" cy="549.6" r="3.9" fill="#6f6f6d" stroke="#fcfcfb" stroke-width="2.0"/>
<circle cx="887.2" cy="574.4" r="3.9" fill="#6f6f6d" stroke="#fcfcfb" stroke-width="2.0"/>
<text x="30.0" y="504.7" font-size="14.2" fill="#898781" text-anchor="middle" transform="rotate(-90.0 30.0 504.7)">decode tok/s</text>
<text x="507.0" y="660.0" font-size="14.2" fill="#898781" text-anchor="middle">KV depth (tokens, log scale)</text>
</svg>
