<svg xmlns="http://www.w3.org/2000/svg" width="960" height="720" viewBox="0 0 960 720" font-family="system-ui, -apple-system, 'Segoe UI', Helvetica, Arial, sans-serif">
<rect x="0" y="0" width="960" height="720" fill="#fcfcfb"/>
<text x="21.0" y="40.5" font-size="21.8" fill="#0b0b0b" font-weight="600">gemma-4-26B-A4B-it Q6_K: prefill &amp; decode vs KV depth</text>
<line x1="21.0" y1="68.9" x2="47.3" y2="68.9" stroke="#6f6f6d" stroke-width="2.5" stroke-dasharray="5,4"/>
<circle cx="34.2" cy="68.9" r="4.5" fill="#6f6f6d" stroke="#fcfcfb" stroke-width="1.5"/>
<text x="55.4" y="75.0" font-size="20.2" fill="#52514e">llama.cpp baseline</text>
<line x1="301.3" y1="68.9" x2="327.6" y2="68.9" stroke="#6f6f6d" stroke-width="2.5"/>
<circle cx="314.4" cy="68.9" r="4.5" fill="#6f6f6d" stroke="#fcfcfb" stroke-width="1.5"/>
<text x="335.7" y="75.0" font-size="20.2" fill="#52514e">llama.cpp speculative (MTP)</text>
<line x1="687.2" y1="68.9" x2="713.5" y2="68.9" stroke="#0072b2" stroke-width="2.5" stroke-dasharray="5,4"/>
<circle cx="700.4" cy="68.9" r="4.5" fill="#0072b2" stroke="#fcfcfb" stroke-width="1.5"/>
<text x="721.6" y="75.0" font-size="20.2" fill="#52514e">gmlx baseline</text>
<line x1="21.0" y1="103.3" x2="47.3" y2="103.3" stroke="#0072b2" stroke-width="2.5"/>
<circle cx="34.2" cy="103.3" r="4.5" fill="#0072b2" stroke="#fcfcfb" stroke-width="1.5"/>
<text x="55.4" y="109.4" font-size="20.2" fill="#52514e">gmlx speculative (MTP)</text>
<line x1="75.0" y1="360.7" x2="939.0" y2="360.7" stroke="#e1e0d9" stroke-width="1.0"/>
<text x="67.5" y="365.9" font-size="13.5" fill="#898781" text-anchor="end" style="font-variant-numeric: tabular-nums">0</text>
<line x1="75.0" y1="286.3" x2="939.0" y2="286.3" stroke="#e1e0d9" stroke-width="1.0"/>
<text x="67.5" y="291.5" font-size="13.5" fill="#898781" text-anchor="end" style="font-variant-numeric: tabular-nums">1000</text>
<line x1="75.0" y1="211.9" x2="939.0" y2="211.9" stroke="#e1e0d9" stroke-width="1.0"/>
<text x="67.5" y="217.1" font-size="13.5" fill="#898781" text-anchor="end" style="font-variant-numeric: tabular-nums">2000</text>
<line x1="75.0" y1="360.7" x2="939.0" y2="360.7" stroke="#c3c2b7" stroke-width="1.2"/>
<line x1="126.8" y1="360.7" x2="126.8" y2="360.7" stroke="#c3c2b7" stroke-width="1.0"/>
<line x1="428.1" y1="360.7" x2="428.1" y2="360.7" stroke="#c3c2b7" stroke-width="1.0"/>
<line x1="622.8" y1="360.7" x2="622.8" y2="360.7" stroke="#c3c2b7" stroke-width="1.0"/>
<line x1="817.0" y1="360.7" x2="817.0" y2="360.7" stroke="#c3c2b7" stroke-width="1.0"/>
<line x1="887.2" y1="360.7" x2="887.2" y2="360.7" stroke="#c3c2b7" stroke-width="1.0"/>
<path d="M126.8,266.3 L428.1,245.4 L622.8,259.8 L817.0,310.3 L887.2,323.3" fill="none" stroke="#6f6f6d" stroke-width="2.4" stroke-linejoin="round" stroke-linecap="round"/>
<circle cx="126.8" cy="266.3" r="3.9" fill="#6f6f6d" stroke="#fcfcfb" stroke-width="2.0"/>
<circle cx="428.1" cy="245.4" r="3.9" fill="#6f6f6d" stroke="#fcfcfb" stroke-width="2.0"/>
<circle cx="622.8" cy="259.8" r="3.9" fill="#6f6f6d" stroke="#fcfcfb" stroke-width="2.0"/>
<circle cx="817.0" cy="310.3" r="3.9" fill="#6f6f6d" stroke="#fcfcfb" stroke-width="2.0"/>
<circle cx="887.2" cy="323.3" r="3.9" fill="#6f6f6d" stroke="#fcfcfb" stroke-width="2.0"/>
<path d="M126.8,225.2 L428.1,166.5 L622.8,161.3 L817.0,212.4 L887.2,244.7" fill="none" stroke="#0072b2" stroke-width="2.4" stroke-linejoin="round" stroke-linecap="round"/>
<circle cx="126.8" cy="225.2" r="3.9" fill="#0072b2" stroke="#fcfcfb" stroke-width="2.0"/>
<circle cx="428.1" cy="166.5" r="3.9" fill="#0072b2" stroke="#fcfcfb" stroke-width="2.0"/>
<circle cx="622.8" cy="161.3" r="3.9" fill="#0072b2" stroke="#fcfcfb" stroke-width="2.0"/>
<circle cx="817.0" cy="212.4" r="3.9" fill="#0072b2" stroke="#fcfcfb" stroke-width="2.0"/>
<circle cx="887.2" cy="244.7" r="3.9" fill="#0072b2" stroke="#fcfcfb" stroke-width="2.0"/>
<text x="894.7" y="238.0" font-size="12.8" fill="#0072b2" font-weight="600" style="font-variant-numeric: tabular-nums">1558</text>
<text x="30.0" y="253.0" font-size="14.2" fill="#898781" text-anchor="middle" transform="rotate(-90.0 30.0 253.0)">prefill tok/s (baseline)</text>
<line x1="75.0" y1="621.0" x2="939.0" y2="621.0" stroke="#e1e0d9" stroke-width="1.0"/>
<text x="67.5" y="626.2" font-size="13.5" fill="#898781" text-anchor="end" style="font-variant-numeric: tabular-nums">0</text>
<line x1="75.0" y1="577.3" x2="939.0" y2="577.3" stroke="#e1e0d9" stroke-width="1.0"/>
<text x="67.5" y="582.5" font-size="13.5" fill="#898781" text-anchor="end" style="font-variant-numeric: tabular-nums">25</text>
<line x1="75.0" y1="533.5" x2="939.0" y2="533.5" stroke="#e1e0d9" stroke-width="1.0"/>
<text x="67.5" y="538.8" font-size="13.5" fill="#898781" text-anchor="end" style="font-variant-numeric: tabular-nums">50</text>
<line x1="75.0" y1="489.8" x2="939.0" y2="489.8" stroke="#e1e0d9" stroke-width="1.0"/>
<text x="67.5" y="495.0" font-size="13.5" fill="#898781" text-anchor="end" style="font-variant-numeric: tabular-nums">75</text>
<line x1="75.0" y1="446.0" x2="939.0" y2="446.0" stroke="#e1e0d9" stroke-width="1.0"/>
<text x="67.5" y="451.3" font-size="13.5" fill="#898781" text-anchor="end" style="font-variant-numeric: tabular-nums">100</text>
<line x1="75.0" y1="621.0" x2="939.0" y2="621.0" stroke="#c3c2b7" stroke-width="1.2"/>
<line x1="126.8" y1="621.0" x2="126.8" y2="626.2" stroke="#c3c2b7" stroke-width="1.0"/>
<text x="126.8" y="642.0" font-size="12.8" fill="#898781" text-anchor="middle" style="font-variant-numeric: tabular-nums">512</text>
<line x1="428.1" y1="621.0" x2="428.1" y2="626.2" stroke="#c3c2b7" stroke-width="1.0"/>
<text x="428.1" y="642.0" font-size="12.8" fill="#898781" text-anchor="middle" style="font-variant-numeric: tabular-nums">4.3k</text>
<line x1="622.8" y1="621.0" x2="622.8" y2="626.2" stroke="#c3c2b7" stroke-width="1.0"/>
<text x="622.8" y="642.0" font-size="12.8" fill="#898781" text-anchor="middle" style="font-variant-numeric: tabular-nums">17k</text>
<line x1="817.0" y1="621.0" x2="817.0" y2="626.2" stroke="#c3c2b7" stroke-width="1.0"/>
<text x="817.0" y="642.0" font-size="12.8" fill="#898781" text-anchor="middle" style="font-variant-numeric: tabular-nums">67k</text>
<line x1="887.2" y1="621.0" x2="887.2" y2="626.2" stroke="#c3c2b7" stroke-width="1.0"/>
<text x="887.2" y="642.0" font-size="12.8" fill="#898781" text-anchor="middle" style="font-variant-numeric: tabular-nums">110k</text>
<path d="M126.8,476.5 L428.1,471.4 L622.8,488.3 L817.0,532.6 L887.2,548.7" fill="none" stroke="#6f6f6d" stroke-width="2.4" stroke-dasharray="6,5" stroke-linejoin="round" stroke-linecap="round"/>
<circle cx="126.8" cy="476.5" r="3.9" fill="#6f6f6d" stroke="#fcfcfb" stroke-width="2.0"/>
<circle cx="428.1" cy="471.4" r="3.9" fill="#6f6f6d" stroke="#fcfcfb" stroke-width="2.0"/>
<circle cx="622.8" cy="488.3" r="3.9" fill="#6f6f6d" stroke="#fcfcfb" stroke-width="2.0"/>
<circle cx="817.0" cy="532.6" r="3.9" fill="#6f6f6d" stroke="#fcfcfb" stroke-width="2.0"/>
<circle cx="887.2" cy="548.7" r="3.9" fill="#6f6f6d" stroke="#fcfcfb" stroke-width="2.0"/>
<path d="M126.8,458.3 L428.1,452.5 L622.8,485.9 L817.0,550.7 L887.2,563.6" fill="none" stroke="#6f6f6d" stroke-width="2.4" stroke-linejoin="round" stroke-linecap="round"/>
<circle cx="126.8" cy="458.3" r="3.9" fill="#6f6f6d" stroke="#fcfcfb" stroke-width="2.0"/>
<circle cx="428.1" cy="452.5" r="3.9" fill="#6f6f6d" stroke="#fcfcfb" stroke-width="2.0"/>
<circle cx="622.8" cy="485.9" r="3.9" fill="#6f6f6d" stroke="#fcfcfb" stroke-width="2.0"/>
<circle cx="817.0" cy="550.7" r="3.9" fill="#6f6f6d" stroke="#fcfcfb" stroke-width="2.0"/>
<circle cx="887.2" cy="563.6" r="3.9" fill="#6f6f6d" stroke="#fcfcfb" stroke-width="2.0"/>
<path d="M126.8,449.9 L428.1,450.8 L622.8,462.8 L817.0,500.9 L887.2,519.7" fill="none" stroke="#0072b2" stroke-width="2.4" stroke-dasharray="6,5" stroke-linejoin="round" stroke-linecap="round"/>
<circle cx="126.8" cy="449.9" r="3.9" fill="#0072b2" stroke="#fcfcfb" stroke-width="2.0"/>
<circle cx="428.1" cy="450.8" r="3.9" fill="#0072b2" stroke="#fcfcfb" stroke-width="2.0"/>
<circle cx="622.8" cy="462.8" r="3.9" fill="#0072b2" stroke="#fcfcfb" stroke-width="2.0"/>
<circle cx="817.0" cy="500.9" r="3.9" fill="#0072b2" stroke="#fcfcfb" stroke-width="2.0"/>
<circle cx="887.2" cy="519.7" r="3.9" fill="#0072b2" stroke="#fcfcfb" stroke-width="2.0"/>
<text x="894.7" y="512.9" font-size="12.8" fill="#0072b2" font-weight="600" style="font-variant-numeric: tabular-nums">57.9</text>
<path d="M126.8,421.6 L428.1,433.6 L622.8,453.2 L817.0,499.1 L887.2,526.8" fill="none" stroke="#0072b2" stroke-width="2.4" stroke-linejoin="round" stroke-linecap="round"/>
<circle cx="126.8" cy="421.6" r="3.9" fill="#0072b2" stroke="#fcfcfb" stroke-width="2.0"/>
<circle cx="428.1" cy="433.6" r="3.9" fill="#0072b2" stroke="#fcfcfb" stroke-width="2.0"/>
<circle cx="622.8" cy="453.2" r="3.9" fill="#0072b2" stroke="#fcfcfb" stroke-width="2.0"/>
<circle cx="817.0" cy="499.1" r="3.9" fill="#0072b2" stroke="#fcfcfb" stroke-width="2.0"/>
<circle cx="887.2" cy="526.8" r="3.9" fill="#0072b2" stroke="#fcfcfb" stroke-width="2.0"/>
<text x="30.0" y="513.3" font-size="14.2" fill="#898781" text-anchor="middle" transform="rotate(-90.0 30.0 513.3)">decode tok/s</text>
<text x="507.0" y="660.0" font-size="14.2" fill="#898781" text-anchor="middle">KV depth (tokens, log scale)</text>
</svg>
