<svg xmlns="http://www.w3.org/2000/svg" width="960" height="720" viewBox="0 0 960 720" font-family="system-ui, -apple-system, 'Segoe UI', Helvetica, Arial, sans-serif">
<rect x="0" y="0" width="960" height="720" fill="#1a1a19"/>
<text x="21.0" y="40.5" font-size="21.8" fill="#ffffff" font-weight="600">gemma-4-E4B-it Q6_K -- prefill &amp; decode vs KV depth</text>
<line x1="21.0" y1="68.9" x2="47.3" y2="68.9" stroke="#9a9a95" stroke-width="2.5"/>
<circle cx="34.2" cy="68.9" r="4.5" fill="#9a9a95" stroke="#1a1a19" stroke-width="1.5"/>
<text x="55.4" y="75.0" font-size="20.2" fill="#c3c2b7">llama.cpp</text>
<line x1="195.6" y1="68.9" x2="221.9" y2="68.9" stroke="#56b4e9" stroke-width="2.5"/>
<circle cx="208.7" cy="68.9" r="4.5" fill="#56b4e9" stroke="#1a1a19" stroke-width="1.5"/>
<text x="230.0" y="75.0" font-size="20.2" fill="#c3c2b7">gmlx</text>
<line x1="75.0" y1="343.5" x2="939.0" y2="343.5" stroke="#2c2c2a" stroke-width="1.0"/>
<text x="67.5" y="348.7" font-size="13.5" fill="#898781" text-anchor="end" style="font-variant-numeric: tabular-nums">0</text>
<line x1="75.0" y1="253.9" x2="939.0" y2="253.9" stroke="#2c2c2a" stroke-width="1.0"/>
<text x="67.5" y="259.2" font-size="13.5" fill="#898781" text-anchor="end" style="font-variant-numeric: tabular-nums">2000</text>
<line x1="75.0" y1="164.4" x2="939.0" y2="164.4" stroke="#2c2c2a" stroke-width="1.0"/>
<text x="67.5" y="169.7" font-size="13.5" fill="#898781" text-anchor="end" style="font-variant-numeric: tabular-nums">4000</text>
<line x1="75.0" y1="343.5" x2="939.0" y2="343.5" stroke="#383835" stroke-width="1.2"/>
<line x1="126.8" y1="343.5" x2="126.8" y2="343.5" stroke="#383835" stroke-width="1.0"/>
<line x1="428.1" y1="343.5" x2="428.1" y2="343.5" stroke="#383835" stroke-width="1.0"/>
<line x1="622.8" y1="343.5" x2="622.8" y2="343.5" stroke="#383835" stroke-width="1.0"/>
<line x1="817.0" y1="343.5" x2="817.0" y2="343.5" stroke="#383835" stroke-width="1.0"/>
<line x1="887.2" y1="343.5" x2="887.2" y2="343.5" stroke="#383835" stroke-width="1.0"/>
<path d="M126.8,246.4 L428.1,209.9 L622.8,244.0 L817.0,293.3 L887.2,309.7" fill="none" stroke="#9a9a95" stroke-width="2.4" stroke-linejoin="round" stroke-linecap="round"/>
<circle cx="126.8" cy="246.4" r="3.9" fill="#9a9a95" stroke="#1a1a19" stroke-width="2.0"/>
<circle cx="428.1" cy="209.9" r="3.9" fill="#9a9a95" stroke="#1a1a19" stroke-width="2.0"/>
<circle cx="622.8" cy="244.0" r="3.9" fill="#9a9a95" stroke="#1a1a19" stroke-width="2.0"/>
<circle cx="817.0" cy="293.3" r="3.9" fill="#9a9a95" stroke="#1a1a19" stroke-width="2.0"/>
<circle cx="887.2" cy="309.7" r="3.9" fill="#9a9a95" stroke="#1a1a19" stroke-width="2.0"/>
<path d="M126.8,239.7 L428.1,139.1 L622.8,128.2 L817.0,160.2 L887.2,194.6" fill="none" stroke="#56b4e9" stroke-width="2.4" stroke-linejoin="round" stroke-linecap="round"/>
<circle cx="126.8" cy="239.7" r="3.9" fill="#56b4e9" stroke="#1a1a19" stroke-width="2.0"/>
<circle cx="428.1" cy="139.1" r="3.9" fill="#56b4e9" stroke="#1a1a19" stroke-width="2.0"/>
<circle cx="622.8" cy="128.2" r="3.9" fill="#56b4e9" stroke="#1a1a19" stroke-width="2.0"/>
<circle cx="817.0" cy="160.2" r="3.9" fill="#56b4e9" stroke="#1a1a19" stroke-width="2.0"/>
<circle cx="887.2" cy="194.6" r="3.9" fill="#56b4e9" stroke="#1a1a19" stroke-width="2.0"/>
<text x="894.7" y="187.8" font-size="12.8" fill="#56b4e9" font-weight="600" style="font-variant-numeric: tabular-nums">3326</text>
<text x="30.0" y="227.2" font-size="14.2" fill="#898781" text-anchor="middle" transform="rotate(-90.0 30.0 227.2)">prefill tok/s (baseline)</text>
<line x1="75.0" y1="621.0" x2="939.0" y2="621.0" stroke="#2c2c2a" stroke-width="1.0"/>
<text x="67.5" y="626.2" font-size="13.5" fill="#898781" text-anchor="end" style="font-variant-numeric: tabular-nums">0</text>
<line x1="75.0" y1="574.5" x2="939.0" y2="574.5" stroke="#2c2c2a" stroke-width="1.0"/>
<text x="67.5" y="579.7" font-size="13.5" fill="#898781" text-anchor="end" style="font-variant-numeric: tabular-nums">20</text>
<line x1="75.0" y1="528.0" x2="939.0" y2="528.0" stroke="#2c2c2a" stroke-width="1.0"/>
<text x="67.5" y="533.2" font-size="13.5" fill="#898781" text-anchor="end" style="font-variant-numeric: tabular-nums">40</text>
<line x1="75.0" y1="481.5" x2="939.0" y2="481.5" stroke="#2c2c2a" stroke-width="1.0"/>
<text x="67.5" y="486.7" font-size="13.5" fill="#898781" text-anchor="end" style="font-variant-numeric: tabular-nums">60</text>
<line x1="75.0" y1="435.0" x2="939.0" y2="435.0" stroke="#2c2c2a" stroke-width="1.0"/>
<text x="67.5" y="440.2" font-size="13.5" fill="#898781" text-anchor="end" style="font-variant-numeric: tabular-nums">80</text>
<line x1="75.0" y1="621.0" x2="939.0" y2="621.0" stroke="#383835" stroke-width="1.2"/>
<line x1="126.8" y1="621.0" x2="126.8" y2="626.2" stroke="#383835" stroke-width="1.0"/>
<text x="126.8" y="642.0" font-size="12.8" fill="#898781" text-anchor="middle" style="font-variant-numeric: tabular-nums">512</text>
<line x1="428.1" y1="621.0" x2="428.1" y2="626.2" stroke="#383835" stroke-width="1.0"/>
<text x="428.1" y="642.0" font-size="12.8" fill="#898781" text-anchor="middle" style="font-variant-numeric: tabular-nums">4.3k</text>
<line x1="622.8" y1="621.0" x2="622.8" y2="626.2" stroke="#383835" stroke-width="1.0"/>
<text x="622.8" y="642.0" font-size="12.8" fill="#898781" text-anchor="middle" style="font-variant-numeric: tabular-nums">17k</text>
<line x1="817.0" y1="621.0" x2="817.0" y2="626.2" stroke="#383835" stroke-width="1.0"/>
<text x="817.0" y="642.0" font-size="12.8" fill="#898781" text-anchor="middle" style="font-variant-numeric: tabular-nums">67k</text>
<line x1="887.2" y1="621.0" x2="887.2" y2="626.2" stroke="#383835" stroke-width="1.0"/>
<text x="887.2" y="642.0" font-size="12.8" fill="#898781" text-anchor="middle" style="font-variant-numeric: tabular-nums">110k</text>
<path d="M126.8,405.7 L428.1,411.9 L622.8,445.5 L817.0,488.1 L887.2,514.8" fill="none" stroke="#9a9a95" stroke-width="2.4" stroke-linejoin="round" stroke-linecap="round"/>
<circle cx="126.8" cy="405.7" r="3.9" fill="#9a9a95" stroke="#1a1a19" stroke-width="2.0"/>
<circle cx="428.1" cy="411.9" r="3.9" fill="#9a9a95" stroke="#1a1a19" stroke-width="2.0"/>
<circle cx="622.8" cy="445.5" r="3.9" fill="#9a9a95" stroke="#1a1a19" stroke-width="2.0"/>
<circle cx="817.0" cy="488.1" r="3.9" fill="#9a9a95" stroke="#1a1a19" stroke-width="2.0"/>
<circle cx="887.2" cy="514.8" r="3.9" fill="#9a9a95" stroke="#1a1a19" stroke-width="2.0"/>
<path d="M126.8,407.3 L428.1,408.6 L622.8,425.3 L817.0,475.0 L887.2,500.3" fill="none" stroke="#56b4e9" stroke-width="2.4" stroke-linejoin="round" stroke-linecap="round"/>
<circle cx="126.8" cy="407.3" r="3.9" fill="#56b4e9" stroke="#1a1a19" stroke-width="2.0"/>
<circle cx="428.1" cy="408.6" r="3.9" fill="#56b4e9" stroke="#1a1a19" stroke-width="2.0"/>
<circle cx="622.8" cy="425.3" r="3.9" fill="#56b4e9" stroke="#1a1a19" stroke-width="2.0"/>
<circle cx="817.0" cy="475.0" r="3.9" fill="#56b4e9" stroke="#1a1a19" stroke-width="2.0"/>
<circle cx="887.2" cy="500.3" r="3.9" fill="#56b4e9" stroke="#1a1a19" stroke-width="2.0"/>
<text x="894.7" y="493.6" font-size="12.8" fill="#56b4e9" font-weight="600" style="font-variant-numeric: tabular-nums">51.9</text>
<text x="30.0" y="504.7" font-size="14.2" fill="#898781" text-anchor="middle" transform="rotate(-90.0 30.0 504.7)">decode tok/s</text>
<text x="507.0" y="660.0" font-size="14.2" fill="#898781" text-anchor="middle">KV depth (tokens, log scale)</text>
</svg>
