<svg xmlns="http://www.w3.org/2000/svg" width="960" height="720" viewBox="0 0 960 720" font-family="system-ui, -apple-system, 'Segoe UI', Helvetica, Arial, sans-serif">
<rect x="0" y="0" width="960" height="720" fill="#1a1a19"/>
<text x="21.0" y="40.5" font-size="21.8" fill="#ffffff" font-weight="600">gemma-4-12B-it Q6_K -- prefill &amp; decode vs KV depth</text>
<line x1="21.0" y1="68.9" x2="47.3" y2="68.9" stroke="#9a9a95" stroke-width="2.5" stroke-dasharray="5,4"/>
<circle cx="34.2" cy="68.9" r="4.5" fill="#9a9a95" stroke="#1a1a19" stroke-width="1.5"/>
<text x="55.4" y="75.0" font-size="20.2" fill="#c3c2b7">llama.cpp baseline</text>
<line x1="301.3" y1="68.9" x2="327.6" y2="68.9" stroke="#9a9a95" stroke-width="2.5"/>
<circle cx="314.4" cy="68.9" r="4.5" fill="#9a9a95" stroke="#1a1a19" stroke-width="1.5"/>
<text x="335.7" y="75.0" font-size="20.2" fill="#c3c2b7">llama.cpp speculative (MTP)</text>
<line x1="687.2" y1="68.9" x2="713.5" y2="68.9" stroke="#56b4e9" stroke-width="2.5" stroke-dasharray="5,4"/>
<circle cx="700.4" cy="68.9" r="4.5" fill="#56b4e9" stroke="#1a1a19" stroke-width="1.5"/>
<text x="721.6" y="75.0" font-size="20.2" fill="#c3c2b7">gmlx baseline</text>
<line x1="21.0" y1="103.3" x2="47.3" y2="103.3" stroke="#56b4e9" stroke-width="2.5"/>
<circle cx="34.2" cy="103.3" r="4.5" fill="#56b4e9" stroke="#1a1a19" stroke-width="1.5"/>
<text x="55.4" y="109.4" font-size="20.2" fill="#c3c2b7">gmlx speculative (MTP)</text>
<line x1="75.0" y1="360.7" x2="939.0" y2="360.7" stroke="#2c2c2a" stroke-width="1.0"/>
<text x="67.5" y="365.9" font-size="13.5" fill="#898781" text-anchor="end" style="font-variant-numeric: tabular-nums">0</text>
<line x1="75.0" y1="278.9" x2="939.0" y2="278.9" stroke="#2c2c2a" stroke-width="1.0"/>
<text x="67.5" y="284.2" font-size="13.5" fill="#898781" text-anchor="end" style="font-variant-numeric: tabular-nums">500</text>
<line x1="75.0" y1="197.2" x2="939.0" y2="197.2" stroke="#2c2c2a" stroke-width="1.0"/>
<text x="67.5" y="202.5" font-size="13.5" fill="#898781" text-anchor="end" style="font-variant-numeric: tabular-nums">1000</text>
<line x1="75.0" y1="360.7" x2="939.0" y2="360.7" stroke="#383835" stroke-width="1.2"/>
<line x1="126.8" y1="360.7" x2="126.8" y2="360.7" stroke="#383835" stroke-width="1.0"/>
<line x1="428.1" y1="360.7" x2="428.1" y2="360.7" stroke="#383835" stroke-width="1.0"/>
<line x1="622.8" y1="360.7" x2="622.8" y2="360.7" stroke="#383835" stroke-width="1.0"/>
<line x1="817.0" y1="360.7" x2="817.0" y2="360.7" stroke="#383835" stroke-width="1.0"/>
<line x1="887.2" y1="360.7" x2="887.2" y2="360.7" stroke="#383835" stroke-width="1.0"/>
<path d="M126.8,242.0 L428.1,220.6 L622.8,234.6 L817.0,290.1 L887.2,310.0" fill="none" stroke="#9a9a95" stroke-width="2.4" stroke-linejoin="round" stroke-linecap="round"/>
<circle cx="126.8" cy="242.0" r="3.9" fill="#9a9a95" stroke="#1a1a19" stroke-width="2.0"/>
<circle cx="428.1" cy="220.6" r="3.9" fill="#9a9a95" stroke="#1a1a19" stroke-width="2.0"/>
<circle cx="622.8" cy="234.6" r="3.9" fill="#9a9a95" stroke="#1a1a19" stroke-width="2.0"/>
<circle cx="817.0" cy="290.1" r="3.9" fill="#9a9a95" stroke="#1a1a19" stroke-width="2.0"/>
<circle cx="887.2" cy="310.0" r="3.9" fill="#9a9a95" stroke="#1a1a19" stroke-width="2.0"/>
<path d="M126.8,221.0 L428.1,163.2 L622.8,161.3 L817.0,203.6 L887.2,226.5" fill="none" stroke="#56b4e9" stroke-width="2.4" stroke-linejoin="round" stroke-linecap="round"/>
<circle cx="126.8" cy="221.0" r="3.9" fill="#56b4e9" stroke="#1a1a19" stroke-width="2.0"/>
<circle cx="428.1" cy="163.2" r="3.9" fill="#56b4e9" stroke="#1a1a19" stroke-width="2.0"/>
<circle cx="622.8" cy="161.3" r="3.9" fill="#56b4e9" stroke="#1a1a19" stroke-width="2.0"/>
<circle cx="817.0" cy="203.6" r="3.9" fill="#56b4e9" stroke="#1a1a19" stroke-width="2.0"/>
<circle cx="887.2" cy="226.5" r="3.9" fill="#56b4e9" stroke="#1a1a19" stroke-width="2.0"/>
<text x="894.7" y="219.7" font-size="12.8" fill="#56b4e9" font-weight="600" style="font-variant-numeric: tabular-nums">821</text>
<text x="30.0" y="253.0" font-size="14.2" fill="#898781" text-anchor="middle" transform="rotate(-90.0 30.0 253.0)">prefill tok/s (baseline)</text>
<line x1="75.0" y1="621.0" x2="939.0" y2="621.0" stroke="#2c2c2a" stroke-width="1.0"/>
<text x="67.5" y="626.2" font-size="13.5" fill="#898781" text-anchor="end" style="font-variant-numeric: tabular-nums">0</text>
<line x1="75.0" y1="565.5" x2="939.0" y2="565.5" stroke="#2c2c2a" stroke-width="1.0"/>
<text x="67.5" y="570.8" font-size="13.5" fill="#898781" text-anchor="end" style="font-variant-numeric: tabular-nums">20</text>
<line x1="75.0" y1="510.0" x2="939.0" y2="510.0" stroke="#2c2c2a" stroke-width="1.0"/>
<text x="67.5" y="515.3" font-size="13.5" fill="#898781" text-anchor="end" style="font-variant-numeric: tabular-nums">40</text>
<line x1="75.0" y1="454.5" x2="939.0" y2="454.5" stroke="#2c2c2a" stroke-width="1.0"/>
<text x="67.5" y="459.8" font-size="13.5" fill="#898781" text-anchor="end" style="font-variant-numeric: tabular-nums">60</text>
<line x1="75.0" y1="621.0" x2="939.0" y2="621.0" stroke="#383835" stroke-width="1.2"/>
<line x1="126.8" y1="621.0" x2="126.8" y2="626.2" stroke="#383835" stroke-width="1.0"/>
<text x="126.8" y="642.0" font-size="12.8" fill="#898781" text-anchor="middle" style="font-variant-numeric: tabular-nums">512</text>
<line x1="428.1" y1="621.0" x2="428.1" y2="626.2" stroke="#383835" stroke-width="1.0"/>
<text x="428.1" y="642.0" font-size="12.8" fill="#898781" text-anchor="middle" style="font-variant-numeric: tabular-nums">4.3k</text>
<line x1="622.8" y1="621.0" x2="622.8" y2="626.2" stroke="#383835" stroke-width="1.0"/>
<text x="622.8" y="642.0" font-size="12.8" fill="#898781" text-anchor="middle" style="font-variant-numeric: tabular-nums">17k</text>
<line x1="817.0" y1="621.0" x2="817.0" y2="626.2" stroke="#383835" stroke-width="1.0"/>
<text x="817.0" y="642.0" font-size="12.8" fill="#898781" text-anchor="middle" style="font-variant-numeric: tabular-nums">67k</text>
<line x1="887.2" y1="621.0" x2="887.2" y2="626.2" stroke="#383835" stroke-width="1.0"/>
<text x="887.2" y="642.0" font-size="12.8" fill="#898781" text-anchor="middle" style="font-variant-numeric: tabular-nums">110k</text>
<path d="M126.8,510.3 L428.1,510.6 L622.8,522.1 L817.0,546.5 L887.2,559.0" fill="none" stroke="#9a9a95" stroke-width="2.4" stroke-dasharray="6,5" stroke-linejoin="round" stroke-linecap="round"/>
<circle cx="126.8" cy="510.3" r="3.9" fill="#9a9a95" stroke="#1a1a19" stroke-width="2.0"/>
<circle cx="428.1" cy="510.6" r="3.9" fill="#9a9a95" stroke="#1a1a19" stroke-width="2.0"/>
<circle cx="622.8" cy="522.1" r="3.9" fill="#9a9a95" stroke="#1a1a19" stroke-width="2.0"/>
<circle cx="817.0" cy="546.5" r="3.9" fill="#9a9a95" stroke="#1a1a19" stroke-width="2.0"/>
<circle cx="887.2" cy="559.0" r="3.9" fill="#9a9a95" stroke="#1a1a19" stroke-width="2.0"/>
<path d="M126.8,471.2 L428.1,461.5 L622.8,474.7 L817.0,544.6 L887.2,561.5" fill="none" stroke="#9a9a95" stroke-width="2.4" stroke-linejoin="round" stroke-linecap="round"/>
<circle cx="126.8" cy="471.2" r="3.9" fill="#9a9a95" stroke="#1a1a19" stroke-width="2.0"/>
<circle cx="428.1" cy="461.5" r="3.9" fill="#9a9a95" stroke="#1a1a19" stroke-width="2.0"/>
<circle cx="622.8" cy="474.7" r="3.9" fill="#9a9a95" stroke="#1a1a19" stroke-width="2.0"/>
<circle cx="817.0" cy="544.6" r="3.9" fill="#9a9a95" stroke="#1a1a19" stroke-width="2.0"/>
<circle cx="887.2" cy="561.5" r="3.9" fill="#9a9a95" stroke="#1a1a19" stroke-width="2.0"/>
<path d="M126.8,499.2 L428.1,501.9 L622.8,509.5 L817.0,525.5 L887.2,537.6" fill="none" stroke="#56b4e9" stroke-width="2.4" stroke-dasharray="6,5" stroke-linejoin="round" stroke-linecap="round"/>
<circle cx="126.8" cy="499.2" r="3.9" fill="#56b4e9" stroke="#1a1a19" stroke-width="2.0"/>
<circle cx="428.1" cy="501.9" r="3.9" fill="#56b4e9" stroke="#1a1a19" stroke-width="2.0"/>
<circle cx="622.8" cy="509.5" r="3.9" fill="#56b4e9" stroke="#1a1a19" stroke-width="2.0"/>
<circle cx="817.0" cy="525.5" r="3.9" fill="#56b4e9" stroke="#1a1a19" stroke-width="2.0"/>
<circle cx="887.2" cy="537.6" r="3.9" fill="#56b4e9" stroke="#1a1a19" stroke-width="2.0"/>
<path d="M126.8,421.6 L428.1,434.9 L622.8,433.6 L817.0,482.0 L887.2,492.8" fill="none" stroke="#56b4e9" stroke-width="2.4" stroke-linejoin="round" stroke-linecap="round"/>
<circle cx="126.8" cy="421.6" r="3.9" fill="#56b4e9" stroke="#1a1a19" stroke-width="2.0"/>
<circle cx="428.1" cy="434.9" r="3.9" fill="#56b4e9" stroke="#1a1a19" stroke-width="2.0"/>
<circle cx="622.8" cy="433.6" r="3.9" fill="#56b4e9" stroke="#1a1a19" stroke-width="2.0"/>
<circle cx="817.0" cy="482.0" r="3.9" fill="#56b4e9" stroke="#1a1a19" stroke-width="2.0"/>
<circle cx="887.2" cy="492.8" r="3.9" fill="#56b4e9" stroke="#1a1a19" stroke-width="2.0"/>
<text x="894.7" y="486.1" font-size="12.8" fill="#56b4e9" font-weight="600" style="font-variant-numeric: tabular-nums">46.2</text>
<text x="30.0" y="513.3" font-size="14.2" fill="#898781" text-anchor="middle" transform="rotate(-90.0 30.0 513.3)">decode tok/s</text>
<text x="507.0" y="660.0" font-size="14.2" fill="#898781" text-anchor="middle">KV depth (tokens, log scale)</text>
</svg>
