<svg xmlns="http://www.w3.org/2000/svg" width="960" height="720" viewBox="0 0 960 720" font-family="system-ui, -apple-system, 'Segoe UI', Helvetica, Arial, sans-serif">
<rect x="0" y="0" width="960" height="720" fill="#fcfcfb"/>
<text x="21.0" y="40.5" font-size="21.8" fill="#0b0b0b" font-weight="600">gpt-oss-120b MXFP4: prefill &amp; decode vs KV depth</text>
<line x1="21.0" y1="68.9" x2="47.3" y2="68.9" stroke="#6f6f6d" stroke-width="2.5"/>
<circle cx="34.2" cy="68.9" r="4.5" fill="#6f6f6d" stroke="#fcfcfb" stroke-width="1.5"/>
<text x="55.4" y="75.0" font-size="20.2" fill="#52514e">llama.cpp</text>
<line x1="195.6" y1="68.9" x2="221.9" y2="68.9" stroke="#0072b2" stroke-width="2.5"/>
<circle cx="208.7" cy="68.9" r="4.5" fill="#0072b2" stroke="#fcfcfb" stroke-width="1.5"/>
<text x="230.0" y="75.0" font-size="20.2" fill="#52514e">gmlx</text>
<line x1="75.0" y1="343.5" x2="939.0" y2="343.5" stroke="#e1e0d9" stroke-width="1.0"/>
<text x="67.5" y="348.7" font-size="13.5" fill="#898781" text-anchor="end" style="font-variant-numeric: tabular-nums">0</text>
<line x1="75.0" y1="278.5" x2="939.0" y2="278.5" stroke="#e1e0d9" stroke-width="1.0"/>
<text x="67.5" y="283.8" font-size="13.5" fill="#898781" text-anchor="end" style="font-variant-numeric: tabular-nums">500</text>
<line x1="75.0" y1="213.6" x2="939.0" y2="213.6" stroke="#e1e0d9" stroke-width="1.0"/>
<text x="67.5" y="218.9" font-size="13.5" fill="#898781" text-anchor="end" style="font-variant-numeric: tabular-nums">1000</text>
<line x1="75.0" y1="148.7" x2="939.0" y2="148.7" stroke="#e1e0d9" stroke-width="1.0"/>
<text x="67.5" y="153.9" font-size="13.5" fill="#898781" text-anchor="end" style="font-variant-numeric: tabular-nums">1500</text>
<line x1="75.0" y1="343.5" x2="939.0" y2="343.5" stroke="#c3c2b7" stroke-width="1.2"/>
<line x1="126.8" y1="343.5" x2="126.8" y2="343.5" stroke="#c3c2b7" stroke-width="1.0"/>
<line x1="439.8" y1="343.5" x2="439.8" y2="343.5" stroke="#c3c2b7" stroke-width="1.0"/>
<line x1="642.0" y1="343.5" x2="642.0" y2="343.5" stroke="#c3c2b7" stroke-width="1.0"/>
<line x1="843.8" y1="343.5" x2="843.8" y2="343.5" stroke="#c3c2b7" stroke-width="1.0"/>
<line x1="887.2" y1="343.5" x2="887.2" y2="343.5" stroke="#c3c2b7" stroke-width="1.0"/>
<path d="M126.8,265.4 L439.8,236.0 L642.0,251.3 L843.8,292.6 L887.2,302.5" fill="none" stroke="#6f6f6d" stroke-width="2.4" stroke-linejoin="round" stroke-linecap="round"/>
<circle cx="126.8" cy="265.4" r="3.9" fill="#6f6f6d" stroke="#fcfcfb" stroke-width="2.0"/>
<circle cx="439.8" cy="236.0" r="3.9" fill="#6f6f6d" stroke="#fcfcfb" stroke-width="2.0"/>
<circle cx="642.0" cy="251.3" r="3.9" fill="#6f6f6d" stroke="#fcfcfb" stroke-width="2.0"/>
<circle cx="843.8" cy="292.6" r="3.9" fill="#6f6f6d" stroke="#fcfcfb" stroke-width="2.0"/>
<circle cx="887.2" cy="302.5" r="3.9" fill="#6f6f6d" stroke="#fcfcfb" stroke-width="2.0"/>
<path d="M126.8,229.8 L439.8,148.4 L642.0,128.2 L843.8,165.0 L887.2,183.9" fill="none" stroke="#0072b2" stroke-width="2.4" stroke-linejoin="round" stroke-linecap="round"/>
<circle cx="126.8" cy="229.8" r="3.9" fill="#0072b2" stroke="#fcfcfb" stroke-width="2.0"/>
<circle cx="439.8" cy="148.4" r="3.9" fill="#0072b2" stroke="#fcfcfb" stroke-width="2.0"/>
<circle cx="642.0" cy="128.2" r="3.9" fill="#0072b2" stroke="#fcfcfb" stroke-width="2.0"/>
<circle cx="843.8" cy="165.0" r="3.9" fill="#0072b2" stroke="#fcfcfb" stroke-width="2.0"/>
<circle cx="887.2" cy="183.9" r="3.9" fill="#0072b2" stroke="#fcfcfb" stroke-width="2.0"/>
<text x="894.7" y="177.1" font-size="12.8" fill="#0072b2" font-weight="600" style="font-variant-numeric: tabular-nums">1229</text>
<text x="30.0" y="227.2" font-size="14.2" fill="#898781" text-anchor="middle" transform="rotate(-90.0 30.0 227.2)">prefill tok/s (baseline)</text>
<line x1="75.0" y1="621.0" x2="939.0" y2="621.0" stroke="#e1e0d9" stroke-width="1.0"/>
<text x="67.5" y="626.2" font-size="13.5" fill="#898781" text-anchor="end" style="font-variant-numeric: tabular-nums">0</text>
<line x1="75.0" y1="573.1" x2="939.0" y2="573.1" stroke="#e1e0d9" stroke-width="1.0"/>
<text x="67.5" y="578.4" font-size="13.5" fill="#898781" text-anchor="end" style="font-variant-numeric: tabular-nums">20</text>
<line x1="75.0" y1="525.2" x2="939.0" y2="525.2" stroke="#e1e0d9" stroke-width="1.0"/>
<text x="67.5" y="530.5" font-size="13.5" fill="#898781" text-anchor="end" style="font-variant-numeric: tabular-nums">40</text>
<line x1="75.0" y1="477.3" x2="939.0" y2="477.3" stroke="#e1e0d9" stroke-width="1.0"/>
<text x="67.5" y="482.6" font-size="13.5" fill="#898781" text-anchor="end" style="font-variant-numeric: tabular-nums">60</text>
<line x1="75.0" y1="429.4" x2="939.0" y2="429.4" stroke="#e1e0d9" stroke-width="1.0"/>
<text x="67.5" y="434.7" font-size="13.5" fill="#898781" text-anchor="end" style="font-variant-numeric: tabular-nums">80</text>
<line x1="75.0" y1="621.0" x2="939.0" y2="621.0" stroke="#c3c2b7" stroke-width="1.2"/>
<line x1="126.8" y1="621.0" x2="126.8" y2="626.2" stroke="#c3c2b7" stroke-width="1.0"/>
<text x="126.8" y="642.0" font-size="12.8" fill="#898781" text-anchor="middle" style="font-variant-numeric: tabular-nums">512</text>
<line x1="439.8" y1="621.0" x2="439.8" y2="626.2" stroke="#c3c2b7" stroke-width="1.0"/>
<text x="439.8" y="642.0" font-size="12.8" fill="#898781" text-anchor="middle" style="font-variant-numeric: tabular-nums">4.3k</text>
<line x1="642.0" y1="621.0" x2="642.0" y2="626.2" stroke="#c3c2b7" stroke-width="1.0"/>
<text x="642.0" y="642.0" font-size="12.8" fill="#898781" text-anchor="middle" style="font-variant-numeric: tabular-nums">17k</text>
<line x1="843.8" y1="621.0" x2="843.8" y2="626.2" stroke="#c3c2b7" stroke-width="1.0"/>
<text x="843.8" y="642.0" font-size="12.8" fill="#898781" text-anchor="middle" style="font-variant-numeric: tabular-nums">67k</text>
<line x1="887.2" y1="621.0" x2="887.2" y2="626.2" stroke="#c3c2b7" stroke-width="1.0"/>
<text x="887.2" y="642.0" font-size="12.8" fill="#898781" text-anchor="middle" style="font-variant-numeric: tabular-nums">90k</text>
<path d="M126.8,420.6 L439.8,462.3 L642.0,479.3 L843.8,523.0 L887.2,535.1" fill="none" stroke="#6f6f6d" stroke-width="2.4" stroke-linejoin="round" stroke-linecap="round"/>
<circle cx="126.8" cy="420.6" r="3.9" fill="#6f6f6d" stroke="#fcfcfb" stroke-width="2.0"/>
<circle cx="439.8" cy="462.3" r="3.9" fill="#6f6f6d" stroke="#fcfcfb" stroke-width="2.0"/>
<circle cx="642.0" cy="479.3" r="3.9" fill="#6f6f6d" stroke="#fcfcfb" stroke-width="2.0"/>
<circle cx="843.8" cy="523.0" r="3.9" fill="#6f6f6d" stroke="#fcfcfb" stroke-width="2.0"/>
<circle cx="887.2" cy="535.1" r="3.9" fill="#6f6f6d" stroke="#fcfcfb" stroke-width="2.0"/>
<path d="M126.8,405.7 L439.8,409.1 L642.0,434.4 L843.8,484.6 L887.2,501.7" fill="none" stroke="#0072b2" stroke-width="2.4" stroke-linejoin="round" stroke-linecap="round"/>
<circle cx="126.8" cy="405.7" r="3.9" fill="#0072b2" stroke="#fcfcfb" stroke-width="2.0"/>
<circle cx="439.8" cy="409.1" r="3.9" fill="#0072b2" stroke="#fcfcfb" stroke-width="2.0"/>
<circle cx="642.0" cy="434.4" r="3.9" fill="#0072b2" stroke="#fcfcfb" stroke-width="2.0"/>
<circle cx="843.8" cy="484.6" r="3.9" fill="#0072b2" stroke="#fcfcfb" stroke-width="2.0"/>
<circle cx="887.2" cy="501.7" r="3.9" fill="#0072b2" stroke="#fcfcfb" stroke-width="2.0"/>
<text x="894.7" y="495.0" font-size="12.8" fill="#0072b2" font-weight="600" style="font-variant-numeric: tabular-nums">49.8</text>
<text x="30.0" y="504.7" font-size="14.2" fill="#898781" text-anchor="middle" transform="rotate(-90.0 30.0 504.7)">decode tok/s</text>
<text x="507.0" y="660.0" font-size="14.2" fill="#898781" text-anchor="middle">KV depth (tokens, log scale)</text>
</svg>
