<svg xmlns="http://www.w3.org/2000/svg" width="960" height="720" viewBox="0 0 960 720" font-family="system-ui, -apple-system, 'Segoe UI', Helvetica, Arial, sans-serif">
<rect x="0" y="0" width="960" height="720" fill="#fcfcfb"/>
<text x="21.0" y="40.5" font-size="21.8" fill="#0b0b0b" font-weight="600">Qwen3.6-35B-A3B Q6_K: prefill &amp; decode vs KV depth</text>
<line x1="21.0" y1="68.9" x2="47.3" y2="68.9" stroke="#6f6f6d" stroke-width="2.5" stroke-dasharray="5,4"/>
<circle cx="34.2" cy="68.9" r="4.5" fill="#6f6f6d" stroke="#fcfcfb" stroke-width="1.5"/>
<text x="55.4" y="75.0" font-size="20.2" fill="#52514e">llama.cpp baseline</text>
<line x1="301.3" y1="68.9" x2="327.6" y2="68.9" stroke="#6f6f6d" stroke-width="2.5"/>
<circle cx="314.4" cy="68.9" r="4.5" fill="#6f6f6d" stroke="#fcfcfb" stroke-width="1.5"/>
<text x="335.7" y="75.0" font-size="20.2" fill="#52514e">llama.cpp speculative (MTP)</text>
<line x1="687.2" y1="68.9" x2="713.5" y2="68.9" stroke="#0072b2" stroke-width="2.5" stroke-dasharray="5,4"/>
<circle cx="700.4" cy="68.9" r="4.5" fill="#0072b2" stroke="#fcfcfb" stroke-width="1.5"/>
<text x="721.6" y="75.0" font-size="20.2" fill="#52514e">gmlx baseline</text>
<line x1="21.0" y1="103.3" x2="47.3" y2="103.3" stroke="#0072b2" stroke-width="2.5"/>
<circle cx="34.2" cy="103.3" r="4.5" fill="#0072b2" stroke="#fcfcfb" stroke-width="1.5"/>
<text x="55.4" y="109.4" font-size="20.2" fill="#52514e">gmlx speculative (MTP)</text>
<line x1="75.0" y1="360.7" x2="939.0" y2="360.7" stroke="#e1e0d9" stroke-width="1.0"/>
<text x="67.5" y="365.9" font-size="13.5" fill="#898781" text-anchor="end" style="font-variant-numeric: tabular-nums">0</text>
<line x1="75.0" y1="288.6" x2="939.0" y2="288.6" stroke="#e1e0d9" stroke-width="1.0"/>
<text x="67.5" y="293.8" font-size="13.5" fill="#898781" text-anchor="end" style="font-variant-numeric: tabular-nums">1000</text>
<line x1="75.0" y1="216.4" x2="939.0" y2="216.4" stroke="#e1e0d9" stroke-width="1.0"/>
<text x="67.5" y="221.7" font-size="13.5" fill="#898781" text-anchor="end" style="font-variant-numeric: tabular-nums">2000</text>
<line x1="75.0" y1="360.7" x2="939.0" y2="360.7" stroke="#c3c2b7" stroke-width="1.2"/>
<line x1="126.8" y1="360.7" x2="126.8" y2="360.7" stroke="#c3c2b7" stroke-width="1.0"/>
<line x1="398.0" y1="360.7" x2="398.0" y2="360.7" stroke="#c3c2b7" stroke-width="1.0"/>
<line x1="573.1" y1="360.7" x2="573.1" y2="360.7" stroke="#c3c2b7" stroke-width="1.0"/>
<line x1="747.8" y1="360.7" x2="747.8" y2="360.7" stroke="#c3c2b7" stroke-width="1.0"/>
<line x1="811.0" y1="360.7" x2="811.0" y2="360.7" stroke="#c3c2b7" stroke-width="1.0"/>
<line x1="887.2" y1="360.7" x2="887.2" y2="360.7" stroke="#c3c2b7" stroke-width="1.0"/>
<path d="M126.8,235.3 L398.0,236.5 L573.1,256.8 L747.8,307.4 L811.0,321.9 L887.2,337.5" fill="none" stroke="#6f6f6d" stroke-width="2.4" stroke-linejoin="round" stroke-linecap="round"/>
<circle cx="126.8" cy="235.3" r="3.9" fill="#6f6f6d" stroke="#fcfcfb" stroke-width="2.0"/>
<circle cx="398.0" cy="236.5" r="3.9" fill="#6f6f6d" stroke="#fcfcfb" stroke-width="2.0"/>
<circle cx="573.1" cy="256.8" r="3.9" fill="#6f6f6d" stroke="#fcfcfb" stroke-width="2.0"/>
<circle cx="747.8" cy="307.4" r="3.9" fill="#6f6f6d" stroke="#fcfcfb" stroke-width="2.0"/>
<circle cx="811.0" cy="321.9" r="3.9" fill="#6f6f6d" stroke="#fcfcfb" stroke-width="2.0"/>
<circle cx="887.2" cy="337.5" r="3.9" fill="#6f6f6d" stroke="#fcfcfb" stroke-width="2.0"/>
<path d="M126.8,208.7 L398.0,161.3 L573.1,163.3 L747.8,227.9 L811.0,262.3 L887.2,302.6" fill="none" stroke="#0072b2" stroke-width="2.4" stroke-linejoin="round" stroke-linecap="round"/>
<circle cx="126.8" cy="208.7" r="3.9" fill="#0072b2" stroke="#fcfcfb" stroke-width="2.0"/>
<circle cx="398.0" cy="161.3" r="3.9" fill="#0072b2" stroke="#fcfcfb" stroke-width="2.0"/>
<circle cx="573.1" cy="163.3" r="3.9" fill="#0072b2" stroke="#fcfcfb" stroke-width="2.0"/>
<circle cx="747.8" cy="227.9" r="3.9" fill="#0072b2" stroke="#fcfcfb" stroke-width="2.0"/>
<circle cx="811.0" cy="262.3" r="3.9" fill="#0072b2" stroke="#fcfcfb" stroke-width="2.0"/>
<circle cx="887.2" cy="302.6" r="3.9" fill="#0072b2" stroke="#fcfcfb" stroke-width="2.0"/>
<text x="894.7" y="295.9" font-size="12.8" fill="#0072b2" font-weight="600" style="font-variant-numeric: tabular-nums">805</text>
<text x="30.0" y="253.0" font-size="14.2" fill="#898781" text-anchor="middle" transform="rotate(-90.0 30.0 253.0)">prefill tok/s (baseline)</text>
<line x1="75.0" y1="621.0" x2="939.0" y2="621.0" stroke="#e1e0d9" stroke-width="1.0"/>
<text x="67.5" y="626.2" font-size="13.5" fill="#898781" text-anchor="end" style="font-variant-numeric: tabular-nums">0</text>
<line x1="75.0" y1="549.3" x2="939.0" y2="549.3" stroke="#e1e0d9" stroke-width="1.0"/>
<text x="67.5" y="554.5" font-size="13.5" fill="#898781" text-anchor="end" style="font-variant-numeric: tabular-nums">50</text>
<line x1="75.0" y1="477.6" x2="939.0" y2="477.6" stroke="#e1e0d9" stroke-width="1.0"/>
<text x="67.5" y="482.8" font-size="13.5" fill="#898781" text-anchor="end" style="font-variant-numeric: tabular-nums">100</text>
<line x1="75.0" y1="405.8" x2="939.0" y2="405.8" stroke="#e1e0d9" stroke-width="1.0"/>
<text x="67.5" y="411.1" font-size="13.5" fill="#898781" text-anchor="end" style="font-variant-numeric: tabular-nums">150</text>
<line x1="75.0" y1="621.0" x2="939.0" y2="621.0" stroke="#c3c2b7" stroke-width="1.2"/>
<line x1="126.8" y1="621.0" x2="126.8" y2="626.2" stroke="#c3c2b7" stroke-width="1.0"/>
<text x="126.8" y="642.0" font-size="12.8" fill="#898781" text-anchor="middle" style="font-variant-numeric: tabular-nums">512</text>
<line x1="398.0" y1="621.0" x2="398.0" y2="626.2" stroke="#c3c2b7" stroke-width="1.0"/>
<text x="398.0" y="642.0" font-size="12.8" fill="#898781" text-anchor="middle" style="font-variant-numeric: tabular-nums">4.3k</text>
<line x1="573.1" y1="621.0" x2="573.1" y2="626.2" stroke="#c3c2b7" stroke-width="1.0"/>
<text x="573.1" y="642.0" font-size="12.8" fill="#898781" text-anchor="middle" style="font-variant-numeric: tabular-nums">17k</text>
<line x1="747.8" y1="621.0" x2="747.8" y2="626.2" stroke="#c3c2b7" stroke-width="1.0"/>
<text x="747.8" y="642.0" font-size="12.8" fill="#898781" text-anchor="middle" style="font-variant-numeric: tabular-nums">67k</text>
<line x1="811.0" y1="621.0" x2="811.0" y2="626.2" stroke="#c3c2b7" stroke-width="1.0"/>
<text x="811.0" y="642.0" font-size="12.8" fill="#898781" text-anchor="middle" style="font-variant-numeric: tabular-nums">110k</text>
<line x1="887.2" y1="621.0" x2="887.2" y2="626.2" stroke="#c3c2b7" stroke-width="1.0"/>
<text x="887.2" y="642.0" font-size="12.8" fill="#898781" text-anchor="middle" style="font-variant-numeric: tabular-nums">200k</text>
<path d="M126.8,492.9 L398.0,485.6 L573.1,498.1 L747.8,537.2 L811.0,553.1 L887.2,572.4" fill="none" stroke="#6f6f6d" stroke-width="2.4" stroke-dasharray="6,5" stroke-linejoin="round" stroke-linecap="round"/>
<circle cx="126.8" cy="492.9" r="3.9" fill="#6f6f6d" stroke="#fcfcfb" stroke-width="2.0"/>
<circle cx="398.0" cy="485.6" r="3.9" fill="#6f6f6d" stroke="#fcfcfb" stroke-width="2.0"/>
<circle cx="573.1" cy="498.1" r="3.9" fill="#6f6f6d" stroke="#fcfcfb" stroke-width="2.0"/>
<circle cx="747.8" cy="537.2" r="3.9" fill="#6f6f6d" stroke="#fcfcfb" stroke-width="2.0"/>
<circle cx="811.0" cy="553.1" r="3.9" fill="#6f6f6d" stroke="#fcfcfb" stroke-width="2.0"/>
<circle cx="887.2" cy="572.4" r="3.9" fill="#6f6f6d" stroke="#fcfcfb" stroke-width="2.0"/>
<path d="M126.8,463.0 L398.0,471.9 L573.1,495.7 L747.8,530.4 L811.0,551.2 L887.2,576.1" fill="none" stroke="#6f6f6d" stroke-width="2.4" stroke-linejoin="round" stroke-linecap="round"/>
<circle cx="126.8" cy="463.0" r="3.9" fill="#6f6f6d" stroke="#fcfcfb" stroke-width="2.0"/>
<circle cx="398.0" cy="471.9" r="3.9" fill="#6f6f6d" stroke="#fcfcfb" stroke-width="2.0"/>
<circle cx="573.1" cy="495.7" r="3.9" fill="#6f6f6d" stroke="#fcfcfb" stroke-width="2.0"/>
<circle cx="747.8" cy="530.4" r="3.9" fill="#6f6f6d" stroke="#fcfcfb" stroke-width="2.0"/>
<circle cx="811.0" cy="551.2" r="3.9" fill="#6f6f6d" stroke="#fcfcfb" stroke-width="2.0"/>
<circle cx="887.2" cy="576.1" r="3.9" fill="#6f6f6d" stroke="#fcfcfb" stroke-width="2.0"/>
<path d="M126.8,436.3 L398.0,437.2 L573.1,457.1 L747.8,501.3 L811.0,522.7 L887.2,553.8" fill="none" stroke="#0072b2" stroke-width="2.4" stroke-dasharray="6,5" stroke-linejoin="round" stroke-linecap="round"/>
<circle cx="126.8" cy="436.3" r="3.9" fill="#0072b2" stroke="#fcfcfb" stroke-width="2.0"/>
<circle cx="398.0" cy="437.2" r="3.9" fill="#0072b2" stroke="#fcfcfb" stroke-width="2.0"/>
<circle cx="573.1" cy="457.1" r="3.9" fill="#0072b2" stroke="#fcfcfb" stroke-width="2.0"/>
<circle cx="747.8" cy="501.3" r="3.9" fill="#0072b2" stroke="#fcfcfb" stroke-width="2.0"/>
<circle cx="811.0" cy="522.7" r="3.9" fill="#0072b2" stroke="#fcfcfb" stroke-width="2.0"/>
<circle cx="887.2" cy="553.8" r="3.9" fill="#0072b2" stroke="#fcfcfb" stroke-width="2.0"/>
<path d="M126.8,422.8 L398.0,421.6 L573.1,450.5 L747.8,499.1 L811.0,516.8 L887.2,551.7" fill="none" stroke="#0072b2" stroke-width="2.4" stroke-linejoin="round" stroke-linecap="round"/>
<circle cx="126.8" cy="422.8" r="3.9" fill="#0072b2" stroke="#fcfcfb" stroke-width="2.0"/>
<circle cx="398.0" cy="421.6" r="3.9" fill="#0072b2" stroke="#fcfcfb" stroke-width="2.0"/>
<circle cx="573.1" cy="450.5" r="3.9" fill="#0072b2" stroke="#fcfcfb" stroke-width="2.0"/>
<circle cx="747.8" cy="499.1" r="3.9" fill="#0072b2" stroke="#fcfcfb" stroke-width="2.0"/>
<circle cx="811.0" cy="516.8" r="3.9" fill="#0072b2" stroke="#fcfcfb" stroke-width="2.0"/>
<circle cx="887.2" cy="551.7" r="3.9" fill="#0072b2" stroke="#fcfcfb" stroke-width="2.0"/>
<text x="894.7" y="544.9" font-size="12.8" fill="#0072b2" font-weight="600" style="font-variant-numeric: tabular-nums">48.3</text>
<text x="30.0" y="513.3" font-size="14.2" fill="#898781" text-anchor="middle" transform="rotate(-90.0 30.0 513.3)">decode tok/s</text>
<text x="507.0" y="660.0" font-size="14.2" fill="#898781" text-anchor="middle">KV depth (tokens, log scale)</text>
</svg>
