<svg xmlns="http://www.w3.org/2000/svg" width="960" height="720" viewBox="0 0 960 720" font-family="system-ui, -apple-system, 'Segoe UI', Helvetica, Arial, sans-serif">
<rect x="0" y="0" width="960" height="720" fill="#fcfcfb"/>
<text x="21.0" y="40.5" font-size="21.8" fill="#0b0b0b" font-weight="600">Qwen3.5-122B-A10B UD-Q5_K_M -- prefill &amp; decode vs KV depth</text>
<line x1="21.0" y1="68.9" x2="47.3" y2="68.9" stroke="#6f6f6d" stroke-width="2.5" stroke-dasharray="5,4"/>
<circle cx="34.2" cy="68.9" r="4.5" fill="#6f6f6d" stroke="#fcfcfb" stroke-width="1.5"/>
<text x="55.4" y="75.0" font-size="20.2" fill="#52514e">llama.cpp baseline</text>
<line x1="301.3" y1="68.9" x2="327.6" y2="68.9" stroke="#6f6f6d" stroke-width="2.5"/>
<circle cx="314.4" cy="68.9" r="4.5" fill="#6f6f6d" stroke="#fcfcfb" stroke-width="1.5"/>
<text x="335.7" y="75.0" font-size="20.2" fill="#52514e">llama.cpp speculative (MTP)</text>
<line x1="687.2" y1="68.9" x2="713.5" y2="68.9" stroke="#0072b2" stroke-width="2.5" stroke-dasharray="5,4"/>
<circle cx="700.4" cy="68.9" r="4.5" fill="#0072b2" stroke="#fcfcfb" stroke-width="1.5"/>
<text x="721.6" y="75.0" font-size="20.2" fill="#52514e">gmlx baseline</text>
<line x1="21.0" y1="103.3" x2="47.3" y2="103.3" stroke="#0072b2" stroke-width="2.5"/>
<circle cx="34.2" cy="103.3" r="4.5" fill="#0072b2" stroke="#fcfcfb" stroke-width="1.5"/>
<text x="55.4" y="109.4" font-size="20.2" fill="#52514e">gmlx speculative (MTP)</text>
<line x1="75.0" y1="360.7" x2="939.0" y2="360.7" stroke="#e1e0d9" stroke-width="1.0"/>
<text x="67.5" y="365.9" font-size="13.5" fill="#898781" text-anchor="end" style="font-variant-numeric: tabular-nums">0</text>
<line x1="75.0" y1="308.6" x2="939.0" y2="308.6" stroke="#e1e0d9" stroke-width="1.0"/>
<text x="67.5" y="313.9" font-size="13.5" fill="#898781" text-anchor="end" style="font-variant-numeric: tabular-nums">250</text>
<line x1="75.0" y1="256.6" x2="939.0" y2="256.6" stroke="#e1e0d9" stroke-width="1.0"/>
<text x="67.5" y="261.8" font-size="13.5" fill="#898781" text-anchor="end" style="font-variant-numeric: tabular-nums">500</text>
<line x1="75.0" y1="204.5" x2="939.0" y2="204.5" stroke="#e1e0d9" stroke-width="1.0"/>
<text x="67.5" y="209.8" font-size="13.5" fill="#898781" text-anchor="end" style="font-variant-numeric: tabular-nums">750</text>
<line x1="75.0" y1="152.5" x2="939.0" y2="152.5" stroke="#e1e0d9" stroke-width="1.0"/>
<text x="67.5" y="157.7" font-size="13.5" fill="#898781" text-anchor="end" style="font-variant-numeric: tabular-nums">1000</text>
<line x1="75.0" y1="360.7" x2="939.0" y2="360.7" stroke="#c3c2b7" stroke-width="1.2"/>
<line x1="126.8" y1="360.7" x2="126.8" y2="360.7" stroke="#c3c2b7" stroke-width="1.0"/>
<line x1="398.0" y1="360.7" x2="398.0" y2="360.7" stroke="#c3c2b7" stroke-width="1.0"/>
<line x1="573.1" y1="360.7" x2="573.1" y2="360.7" stroke="#c3c2b7" stroke-width="1.0"/>
<line x1="747.8" y1="360.7" x2="747.8" y2="360.7" stroke="#c3c2b7" stroke-width="1.0"/>
<line x1="811.0" y1="360.7" x2="811.0" y2="360.7" stroke="#c3c2b7" stroke-width="1.0"/>
<line x1="887.2" y1="360.7" x2="887.2" y2="360.7" stroke="#c3c2b7" stroke-width="1.0"/>
<path d="M126.8,242.3 L398.0,245.1 L573.1,261.5 L747.8,301.4 L811.0,318.6 L887.2,333.6" fill="none" stroke="#6f6f6d" stroke-width="2.4" stroke-linejoin="round" stroke-linecap="round"/>
<circle cx="126.8" cy="242.3" r="3.9" fill="#6f6f6d" stroke="#fcfcfb" stroke-width="2.0"/>
<circle cx="398.0" cy="245.1" r="3.9" fill="#6f6f6d" stroke="#fcfcfb" stroke-width="2.0"/>
<circle cx="573.1" cy="261.5" r="3.9" fill="#6f6f6d" stroke="#fcfcfb" stroke-width="2.0"/>
<circle cx="747.8" cy="301.4" r="3.9" fill="#6f6f6d" stroke="#fcfcfb" stroke-width="2.0"/>
<circle cx="811.0" cy="318.6" r="3.9" fill="#6f6f6d" stroke="#fcfcfb" stroke-width="2.0"/>
<circle cx="887.2" cy="333.6" r="3.9" fill="#6f6f6d" stroke="#fcfcfb" stroke-width="2.0"/>
<path d="M126.8,226.6 L398.0,162.8 L573.1,161.3 L747.8,225.5 L811.0,261.9 L887.2,298.2" fill="none" stroke="#0072b2" stroke-width="2.4" stroke-linejoin="round" stroke-linecap="round"/>
<circle cx="126.8" cy="226.6" r="3.9" fill="#0072b2" stroke="#fcfcfb" stroke-width="2.0"/>
<circle cx="398.0" cy="162.8" r="3.9" fill="#0072b2" stroke="#fcfcfb" stroke-width="2.0"/>
<circle cx="573.1" cy="161.3" r="3.9" fill="#0072b2" stroke="#fcfcfb" stroke-width="2.0"/>
<circle cx="747.8" cy="225.5" r="3.9" fill="#0072b2" stroke="#fcfcfb" stroke-width="2.0"/>
<circle cx="811.0" cy="261.9" r="3.9" fill="#0072b2" stroke="#fcfcfb" stroke-width="2.0"/>
<circle cx="887.2" cy="298.2" r="3.9" fill="#0072b2" stroke="#fcfcfb" stroke-width="2.0"/>
<text x="894.7" y="291.4" font-size="12.8" fill="#0072b2" font-weight="600" style="font-variant-numeric: tabular-nums">300</text>
<text x="30.0" y="253.0" font-size="14.2" fill="#898781" text-anchor="middle" transform="rotate(-90.0 30.0 253.0)">prefill tok/s (baseline)</text>
<line x1="75.0" y1="621.0" x2="939.0" y2="621.0" stroke="#e1e0d9" stroke-width="1.0"/>
<text x="67.5" y="626.2" font-size="13.5" fill="#898781" text-anchor="end" style="font-variant-numeric: tabular-nums">0</text>
<line x1="75.0" y1="553.4" x2="939.0" y2="553.4" stroke="#e1e0d9" stroke-width="1.0"/>
<text x="67.5" y="558.7" font-size="13.5" fill="#898781" text-anchor="end" style="font-variant-numeric: tabular-nums">20</text>
<line x1="75.0" y1="485.9" x2="939.0" y2="485.9" stroke="#e1e0d9" stroke-width="1.0"/>
<text x="67.5" y="491.1" font-size="13.5" fill="#898781" text-anchor="end" style="font-variant-numeric: tabular-nums">40</text>
<line x1="75.0" y1="418.3" x2="939.0" y2="418.3" stroke="#e1e0d9" stroke-width="1.0"/>
<text x="67.5" y="423.6" font-size="13.5" fill="#898781" text-anchor="end" style="font-variant-numeric: tabular-nums">60</text>
<line x1="75.0" y1="621.0" x2="939.0" y2="621.0" stroke="#c3c2b7" stroke-width="1.2"/>
<line x1="126.8" y1="621.0" x2="126.8" y2="626.2" stroke="#c3c2b7" stroke-width="1.0"/>
<text x="126.8" y="642.0" font-size="12.8" fill="#898781" text-anchor="middle" style="font-variant-numeric: tabular-nums">512</text>
<line x1="398.0" y1="621.0" x2="398.0" y2="626.2" stroke="#c3c2b7" stroke-width="1.0"/>
<text x="398.0" y="642.0" font-size="12.8" fill="#898781" text-anchor="middle" style="font-variant-numeric: tabular-nums">4.3k</text>
<line x1="573.1" y1="621.0" x2="573.1" y2="626.2" stroke="#c3c2b7" stroke-width="1.0"/>
<text x="573.1" y="642.0" font-size="12.8" fill="#898781" text-anchor="middle" style="font-variant-numeric: tabular-nums">17k</text>
<line x1="747.8" y1="621.0" x2="747.8" y2="626.2" stroke="#c3c2b7" stroke-width="1.0"/>
<text x="747.8" y="642.0" font-size="12.8" fill="#898781" text-anchor="middle" style="font-variant-numeric: tabular-nums">67k</text>
<line x1="811.0" y1="621.0" x2="811.0" y2="626.2" stroke="#c3c2b7" stroke-width="1.0"/>
<text x="811.0" y="642.0" font-size="12.8" fill="#898781" text-anchor="middle" style="font-variant-numeric: tabular-nums">110k</text>
<line x1="887.2" y1="621.0" x2="887.2" y2="626.2" stroke="#c3c2b7" stroke-width="1.0"/>
<text x="887.2" y="642.0" font-size="12.8" fill="#898781" text-anchor="middle" style="font-variant-numeric: tabular-nums">200k</text>
<path d="M126.8,491.2 L398.0,495.2 L573.1,506.7 L747.8,534.7 L811.0,549.8 L887.2,568.3" fill="none" stroke="#6f6f6d" stroke-width="2.4" stroke-dasharray="6,5" stroke-linejoin="round" stroke-linecap="round"/>
<circle cx="126.8" cy="491.2" r="3.9" fill="#6f6f6d" stroke="#fcfcfb" stroke-width="2.0"/>
<circle cx="398.0" cy="495.2" r="3.9" fill="#6f6f6d" stroke="#fcfcfb" stroke-width="2.0"/>
<circle cx="573.1" cy="506.7" r="3.9" fill="#6f6f6d" stroke="#fcfcfb" stroke-width="2.0"/>
<circle cx="747.8" cy="534.7" r="3.9" fill="#6f6f6d" stroke="#fcfcfb" stroke-width="2.0"/>
<circle cx="811.0" cy="549.8" r="3.9" fill="#6f6f6d" stroke="#fcfcfb" stroke-width="2.0"/>
<circle cx="887.2" cy="568.3" r="3.9" fill="#6f6f6d" stroke="#fcfcfb" stroke-width="2.0"/>
<path d="M126.8,459.5 L398.0,464.3 L573.1,490.7 L747.8,535.1 L811.0,547.0 L887.2,572.2" fill="none" stroke="#6f6f6d" stroke-width="2.4" stroke-linejoin="round" stroke-linecap="round"/>
<circle cx="126.8" cy="459.5" r="3.9" fill="#6f6f6d" stroke="#fcfcfb" stroke-width="2.0"/>
<circle cx="398.0" cy="464.3" r="3.9" fill="#6f6f6d" stroke="#fcfcfb" stroke-width="2.0"/>
<circle cx="573.1" cy="490.7" r="3.9" fill="#6f6f6d" stroke="#fcfcfb" stroke-width="2.0"/>
<circle cx="747.8" cy="535.1" r="3.9" fill="#6f6f6d" stroke="#fcfcfb" stroke-width="2.0"/>
<circle cx="811.0" cy="547.0" r="3.9" fill="#6f6f6d" stroke="#fcfcfb" stroke-width="2.0"/>
<circle cx="887.2" cy="572.2" r="3.9" fill="#6f6f6d" stroke="#fcfcfb" stroke-width="2.0"/>
<path d="M126.8,459.5 L398.0,466.1 L573.1,478.3 L747.8,507.4 L811.0,525.2 L887.2,547.0" fill="none" stroke="#0072b2" stroke-width="2.4" stroke-dasharray="6,5" stroke-linejoin="round" stroke-linecap="round"/>
<circle cx="126.8" cy="459.5" r="3.9" fill="#0072b2" stroke="#fcfcfb" stroke-width="2.0"/>
<circle cx="398.0" cy="466.1" r="3.9" fill="#0072b2" stroke="#fcfcfb" stroke-width="2.0"/>
<circle cx="573.1" cy="478.3" r="3.9" fill="#0072b2" stroke="#fcfcfb" stroke-width="2.0"/>
<circle cx="747.8" cy="507.4" r="3.9" fill="#0072b2" stroke="#fcfcfb" stroke-width="2.0"/>
<circle cx="811.0" cy="525.2" r="3.9" fill="#0072b2" stroke="#fcfcfb" stroke-width="2.0"/>
<circle cx="887.2" cy="547.0" r="3.9" fill="#0072b2" stroke="#fcfcfb" stroke-width="2.0"/>
<path d="M126.8,421.6 L398.0,424.2 L573.1,431.9 L747.8,479.3 L811.0,497.0 L887.2,546.7" fill="none" stroke="#0072b2" stroke-width="2.4" stroke-linejoin="round" stroke-linecap="round"/>
<circle cx="126.8" cy="421.6" r="3.9" fill="#0072b2" stroke="#fcfcfb" stroke-width="2.0"/>
<circle cx="398.0" cy="424.2" r="3.9" fill="#0072b2" stroke="#fcfcfb" stroke-width="2.0"/>
<circle cx="573.1" cy="431.9" r="3.9" fill="#0072b2" stroke="#fcfcfb" stroke-width="2.0"/>
<circle cx="747.8" cy="479.3" r="3.9" fill="#0072b2" stroke="#fcfcfb" stroke-width="2.0"/>
<circle cx="811.0" cy="497.0" r="3.9" fill="#0072b2" stroke="#fcfcfb" stroke-width="2.0"/>
<circle cx="887.2" cy="546.7" r="3.9" fill="#0072b2" stroke="#fcfcfb" stroke-width="2.0"/>
<text x="894.7" y="540.0" font-size="12.8" fill="#0072b2" font-weight="600" style="font-variant-numeric: tabular-nums">22.0</text>
<text x="30.0" y="513.3" font-size="14.2" fill="#898781" text-anchor="middle" transform="rotate(-90.0 30.0 513.3)">decode tok/s</text>
<text x="507.0" y="660.0" font-size="14.2" fill="#898781" text-anchor="middle">KV depth (tokens, log scale)</text>
</svg>
